<?xml version="1.0" standalone="no"?>
<!DOCTYPE svg PUBLIC "-//W3C//DTD SVG 20010904//EN"
 "http://www.w3.org/TR/2001/REC-SVG-20010904/DTD/svg10.dtd">
<svg version="1.0" xmlns="http://www.w3.org/2000/svg"
 width="260.000000pt" height="260.000000pt" viewBox="0 0 260.000000 260.000000"
 preserveAspectRatio="xMidYMid meet">
<metadata>
Created by potrace 1.11, written by Peter Selinger 2001-2013
</metadata>
<g transform="translate(0.000000,260.000000) scale(0.100000,-0.100000)"
fill="#000000" stroke="none">
<path d="M1231 1939 c-79 -12 -117 -29 -174 -80 -125 -110 -121 -324 9 -438
25 -22 103 -70 175 -106 71 -37 138 -79 149 -92 21 -27 26 -82 10 -112 -12
-24 -80 -51 -126 -51 -55 0 -178 28 -239 55 -87 39 -85 41 -85 -81 l0 -105 35
-15 c111 -46 312 -60 428 -29 147 39 230 145 228 292 -2 149 -56 213 -268 321
-151 77 -173 97 -173 156 0 36 5 48 27 65 14 12 38 24 52 28 37 9 168 -12 221
-36 25 -11 50 -21 56 -21 10 0 79 151 79 173 0 12 -98 51 -161 65 -75 17 -172
21 -243 11z"/>
<path d="M83 440 c3 -87 8 -115 29 -162 47 -102 135 -178 238 -206 35 -10 261
-12 965 -10 l920 3 57 27 c73 34 142 103 176 176 22 48 27 74 30 157 l3 100
-26 -45 c-51 -87 -119 -144 -214 -177 l-66 -23 -912 0 c-519 0 -914 4 -917 9
-3 5 -21 12 -40 15 -79 15 -188 113 -232 208 -14 31 -15 28 -11 -72z"/>
</g>
</svg>
